<?xml version="1.0" encoding="UTF-8" standalone="no"?>
<!DOCTYPE svg PUBLIC "-//W3C//DTD SVG 1.1//EN"
 "http://www.w3.org/Graphics/SVG/1.1/DTD/svg11.dtd">
<!-- Generated by graphviz version 2.43.0 (0)
 -->
<!-- Title: UML Pages: 1 -->
<svg width="562pt" height="210pt"
 viewBox="0.00 0.00 562.00 210.00" xmlns="http://www.w3.org/2000/svg" xmlns:xlink="http://www.w3.org/1999/xlink">
<g id="graph0" class="graph" transform="scale(1 1) rotate(0) translate(4 206)">
<title>UML</title>
<polygon fill="white" stroke="transparent" points="-4,4 -4,-206 558,-206 558,4 -4,4"/>
<!-- User -->
<g id="node1" class="node">
<title>User</title>
<polygon fill="#1f4e79" stroke="transparent" points="9,-159 9,-185 203,-185 203,-159 9,-159"/>
<text text-anchor="start" x="89" y="-169.6" font-family="Helvetica,sans-Serif" font-weight="bold" font-size="13.00" fill="white">User</text>
<text text-anchor="start" x="15" y="-145.8" font-family="Helvetica,sans-Serif" font-size="9.00" fill="#555555">django.contrib.auth.models.User</text>
<text text-anchor="start" x="15" y="-122.2" font-family="Helvetica,sans-Serif" font-size="11.00">PK  id : Integer</text>
<text text-anchor="start" x="15" y="-98.2" font-family="Helvetica,sans-Serif" font-size="11.00">    username : CharField(150)</text>
<text text-anchor="start" x="15" y="-74.2" font-family="Helvetica,sans-Serif" font-size="11.00">    email : EmailField</text>
<text text-anchor="start" x="15" y="-50.2" font-family="Helvetica,sans-Serif" font-size="11.00">    password : CharField (hashed)</text>
<text text-anchor="start" x="15" y="-26.2" font-family="Helvetica,sans-Serif" font-size="11.00">    date_joined : DateTimeField</text>
<polygon fill="none" stroke="#1f4e79" points="8,-16 8,-186 204,-186 204,-16 8,-16"/>
</g>
<!-- Task -->
<g id="node2" class="node">
<title>Task</title>
<polygon fill="#1f4e79" stroke="transparent" points="295,-171 295,-197 545,-197 545,-171 295,-171"/>
<text text-anchor="start" x="403" y="-181.6" font-family="Helvetica,sans-Serif" font-weight="bold" font-size="13.00" fill="white">Task</text>
<text text-anchor="start" x="301" y="-157.8" font-family="Helvetica,sans-Serif" font-size="9.00" fill="#555555">app: tasks / models.py</text>
<text text-anchor="start" x="301" y="-134.2" font-family="Helvetica,sans-Serif" font-size="11.00">PK  id : Integer</text>
<text text-anchor="start" x="301" y="-110.2" font-family="Helvetica,sans-Serif" font-size="11.00">FK  user_id : Integer → User.id</text>
<text text-anchor="start" x="301" y="-86.2" font-family="Helvetica,sans-Serif" font-size="11.00">    title : CharField(200)</text>
<text text-anchor="start" x="301" y="-62.2" font-family="Helvetica,sans-Serif" font-size="11.00">    description : TextField (null=True)</text>
<text text-anchor="start" x="301" y="-38.2" font-family="Helvetica,sans-Serif" font-size="11.00">    complete : BooleanField (default=False)</text>
<text text-anchor="start" x="301" y="-14.2" font-family="Helvetica,sans-Serif" font-size="11.00">    created : DateTimeField (auto_now_add)</text>
<polygon fill="none" stroke="#1f4e79" points="294,-4 294,-198 546,-198 546,-4 294,-4"/>
</g>
<!-- User&#45;&gt;Task -->
<g id="edge1" class="edge">
<title>User&#45;&gt;Task</title>
<path fill="none" stroke="#2e75b6" d="M212.19,-101C235.81,-101 261.17,-101 285.76,-101"/>
<text text-anchor="middle" x="249" y="-104" font-family="Helvetica,sans-Serif" font-size="10.00"> &#160;owns &#160;</text>
<text text-anchor="middle" x="276.76" y="-93" font-family="Helvetica,sans-Serif" font-size="10.00">0..*</text>
<text text-anchor="middle" x="215.69" y="-93" font-family="Helvetica,sans-Serif" font-size="10.00">1</text>
</g>
</g>
</svg>
